<?xml version="1.0" encoding="UTF-8"?>
<svg xmlns="http://www.w3.org/2000/svg"
     xmlns:xlink="http://www.w3.org/1999/xlink"
     version="1.2"
     width="141.42mm" height="100mm" viewBox="0 0 141.42 100"
     stroke="none"
     fill="#000000"
     stroke-width="0.3"
     font-size="3.88"
>
<defs>
  <marker id="arrow" markerWidth="15" markerHeight="7" refX="5" refY="3.5" orient="auto" markerUnits="strokeWidth">
    <path d="M0,0 L15,3.5 L0,7 z" stroke="context-stroke" fill="context-stroke"/>
  </marker>
</defs>
<g stroke-width="1.06" fill="#000000" fill-opacity="0.000" stroke="#D3D3D3" id="img-ae134c15-1">
  <g transform="translate(54.94,22.62)">
    <path fill="none" d="M6.57,-10.89 L-6.57,10.89 " class="primitive"/>
  </g>
  <g transform="translate(77.24,16.91)">
    <path fill="none" d="M-9.8,-6.14 L9.8,6.14 " class="primitive"/>
  </g>
  <g transform="translate(29.06,36.03)">
    <path fill="none" d="M12.08,0.61 L-12.08,-0.61 " class="primitive"/>
  </g>
  <g transform="translate(64.44,46.98)">
    <path fill="none" d="M-14.01,-7.8 L14.01,7.8 " class="primitive"/>
  </g>
  <g transform="translate(86.74,41.28)">
    <path fill="none" d="M3.24,-12.17 L-3.24,12.17 " class="primitive"/>
  </g>
  <g transform="translate(101.72,38.8)">
    <path fill="none" d="M-8.19,-10.12 L8.19,10.12 " class="primitive"/>
  </g>
  <g transform="translate(93.04,74.36)">
    <path fill="none" d="M-8.44,-13.92 L8.44,13.92 " class="primitive"/>
  </g>
  <g transform="translate(97.52,54.59)">
    <path fill="none" d="M9.91,-1.63 L-9.91,1.63 " class="primitive"/>
  </g>
  <g transform="translate(121.07,67.63)">
    <path fill="none" d="M-6.67,-12.08 L6.67,12.08 " class="primitive"/>
  </g>
  <g transform="translate(116.59,87.41)">
    <path fill="none" d="M-8.32,2.72 L8.32,-2.72 " class="primitive"/>
  </g>
</g>
<g stroke-width="1.06" stroke="#D3D3D3" id="img-ae134c15-2">
  <g transform="translate(49.82,31.11)">
    <path fill="none" d="M2.58,-0.64 L-1.45,2.4 -1.13,-1.76 " class="primitive"/>
  </g>
  <g transform="translate(84.28,21.31)">
    <path fill="none" d="M-0.05,-1.93 L2.76,1.73 -2.72,0.2 " class="primitive"/>
  </g>
  <g transform="translate(20.66,35.61)">
    <path fill="none" d="M1.7,1.51 L-3.68,-0.18 1.98,-1.33 " class="primitive"/>
  </g>
  <g transform="translate(75.55,53.17)">
    <path fill="none" d="M-0.2,-1.93 L2.9,1.62 -2.7,0.31 " class="primitive"/>
  </g>
  <g transform="translate(84.19,50.88)">
    <path fill="none" d="M2.32,-1.02 L-0.68,2.57 -1.64,-1.55 " class="primitive"/>
  </g>
  <g transform="translate(108.08,46.66)">
    <path fill="none" d="M0.83,-1.84 L1.83,2.27 -2.67,-0.42 " class="primitive"/>
  </g>
  <g transform="translate(100.03,85.88)">
    <path fill="none" d="M1.12,-1.76 L1.46,2.4 -2.58,-0.64 " class="primitive"/>
  </g>
  <g transform="translate(91.21,55.63)">
    <path fill="none" d="M2.26,1.09 L-3.59,0.59 1.34,-1.68 " class="primitive"/>
  </g>
  <g transform="translate(126.4,77.28)">
    <path fill="none" d="M1.21,-1.73 L1.34,2.43 -2.55,-0.7 " class="primitive"/>
  </g>
  <g transform="translate(121.56,85.78)">
    <path fill="none" d="M-2.52,-0.75 L3.35,-1.09 -0.83,1.84 " class="primitive"/>
  </g>
</g>
<g font-size="4" stroke="#000000" stroke-opacity="0.000" fill="#000000" id="img-ae134c15-3">
</g>
<g stroke-width="0" stroke="#000000" stroke-opacity="0.000" fill="#40E0D0" id="img-ae134c15-4">
  <g transform="translate(63.55,8.33)">
    <circle cx="0" cy="0" r="5" class="primitive"/>
  </g>
  <g transform="translate(46.33,36.9)">
    <circle cx="0" cy="0" r="5" class="primitive"/>
  </g>
  <g transform="translate(90.94,25.49)">
    <circle cx="0" cy="0" r="5" class="primitive"/>
  </g>
  <g transform="translate(11.79,35.16)">
    <circle cx="0" cy="0" r="5" class="primitive"/>
  </g>
  <g transform="translate(82.54,57.06)">
    <circle cx="0" cy="0" r="5" class="primitive"/>
  </g>
  <g transform="translate(112.5,52.12)">
    <circle cx="0" cy="0" r="5" class="primitive"/>
  </g>
  <g transform="translate(103.53,91.67)">
    <circle cx="0" cy="0" r="5" class="primitive"/>
  </g>
  <g transform="translate(129.64,83.14)">
    <circle cx="0" cy="0" r="5" class="primitive"/>
  </g>
</g>
<g font-size="4" stroke="#000000" stroke-opacity="0.000" fill="#000000" id="img-ae134c15-5">
  <g transform="translate(63.55,8.33)">
    <g class="primitive">
      <text text-anchor="middle" dy="0.35em">a</text>
    </g>
  </g>
  <g transform="translate(46.33,36.9)">
    <g class="primitive">
      <text text-anchor="middle" dy="0.35em">b</text>
    </g>
  </g>
  <g transform="translate(90.94,25.49)">
    <g class="primitive">
      <text text-anchor="middle" dy="0.35em">c</text>
    </g>
  </g>
  <g transform="translate(11.79,35.16)">
    <g class="primitive">
      <text text-anchor="middle" dy="0.35em">d</text>
    </g>
  </g>
  <g transform="translate(82.54,57.06)">
    <g class="primitive">
      <text text-anchor="middle" dy="0.35em">e</text>
    </g>
  </g>
  <g transform="translate(112.5,52.12)">
    <g class="primitive">
      <text text-anchor="middle" dy="0.35em">f</text>
    </g>
  </g>
  <g transform="translate(103.53,91.67)">
    <g class="primitive">
      <text text-anchor="middle" dy="0.35em">g</text>
    </g>
  </g>
  <g transform="translate(129.64,83.14)">
    <g class="primitive">
      <text text-anchor="middle" dy="0.35em">h</text>
    </g>
  </g>
</g>
</svg>
