<?xml version="1.0" encoding="UTF-8"?>
<svg xmlns="http://www.w3.org/2000/svg"
     xmlns:xlink="http://www.w3.org/1999/xlink"
     version="1.2"
     width="141.42mm" height="100mm" viewBox="0 0 141.42 100"
     stroke="none"
     fill="#000000"
     stroke-width="0.3"
     font-size="3.88"
>
<defs>
  <marker id="arrow" markerWidth="15" markerHeight="7" refX="5" refY="3.5" orient="auto" markerUnits="strokeWidth">
    <path d="M0,0 L15,3.5 L0,7 z" stroke="context-stroke" fill="context-stroke"/>
  </marker>
</defs>
<g stroke-width="1.06" fill="#000000" fill-opacity="0.000" stroke="#D3D3D3" id="img-244ebdf9-1">
  <g transform="translate(112.79,48.61)">
    <path fill="none" d="M5.25,-10.46 L-5.25,10.46 " class="primitive"/>
  </g>
  <g transform="translate(103.36,26.55)">
    <path fill="none" d="M12.15,6.02 L-12.15,-6.02 " class="primitive"/>
  </g>
  <g transform="translate(117.72,77.1)">
    <path fill="none" d="M-9.31,-11.38 L9.31,11.38 " class="primitive"/>
  </g>
  <g transform="translate(85.33,51.12)">
    <path fill="none" d="M16.38,9.13 L-16.38,-9.13 " class="primitive"/>
  </g>
  <g transform="translate(75.9,29.06)">
    <path fill="none" d="M7.96,-7.68 L-7.96,7.68 " class="primitive"/>
  </g>
  <g transform="translate(68.47,14.73)">
    <path fill="none" d="M13.46,2.69 L-13.46,-2.69 " class="primitive"/>
  </g>
  <g transform="translate(42.77,37.36)">
    <path fill="none" d="M16.93,1.81 L-16.93,-1.81 " class="primitive"/>
  </g>
  <g transform="translate(57.43,25.38)">
    <path fill="none" d="M-5.63,-10.88 L5.63,10.88 " class="primitive"/>
  </g>
  <g transform="translate(30.89,9.69)">
    <path fill="none" d="M13.93,0.99 L-13.93,-0.99 " class="primitive"/>
  </g>
  <g transform="translate(16.24,21.67)">
    <path fill="none" d="M3.26,9.75 L-3.26,-9.75 " class="primitive"/>
  </g>
</g>
<g stroke-width="1.06" stroke="#D3D3D3" id="img-244ebdf9-2">
  <g transform="translate(108.78,56.61)">
    <path fill="none" d="M2.52,-0.75 L-1.23,2.46 -1.28,-1.71 " class="primitive"/>
  </g>
  <g transform="translate(94.23,22.03)">
    <path fill="none" d="M0.36,1.92 L-3.02,-1.5 2.67,-0.42 " class="primitive"/>
  </g>
  <g transform="translate(125.18,86.22)">
    <path fill="none" d="M0.82,-1.84 L1.85,2.26 -2.67,-0.42 " class="primitive"/>
  </g>
  <g transform="translate(71.84,43.61)">
    <path fill="none" d="M0.2,1.93 L-2.9,-1.62 2.7,-0.31 " class="primitive"/>
  </g>
  <g transform="translate(70.12,34.64)">
    <path fill="none" d="M2.72,-0.21 L-2.18,2.1 -0.53,-1.9 " class="primitive"/>
  </g>
  <g transform="translate(58.57,12.75)">
    <path fill="none" d="M1.23,1.73 L-3.55,-0.71 2.32,-1.02 " class="primitive"/>
  </g>
  <g transform="translate(29.49,35.94)">
    <path fill="none" d="M1.52,1.6 L-3.65,-0.39 2.13,-1.21 " class="primitive"/>
  </g>
  <g transform="translate(61.79,33.8)">
    <path fill="none" d="M1.26,-1.72 L1.27,2.45 -2.53,-0.74 " class="primitive"/>
  </g>
  <g transform="translate(20.64,8.96)">
    <path fill="none" d="M1.64,1.55 L-3.67,-0.26 2.04,-1.29 " class="primitive"/>
  </g>
  <g transform="translate(13.83,14.46)">
    <path fill="none" d="M-1.54,1.6 L-0.85,-2.54 2.39,0.94 " class="primitive"/>
  </g>
</g>
<g font-size="4" stroke="#000000" stroke-opacity="0.000" fill="#000000" id="img-244ebdf9-3">
</g>
<g stroke-width="0" stroke="#000000" stroke-opacity="0.000" fill="#40E0D0" id="img-244ebdf9-4">
  <g transform="translate(119.78,34.68)">
    <circle cx="0" cy="0" r="5" class="primitive"/>
  </g>
  <g transform="translate(105.8,62.54)">
    <circle cx="0" cy="0" r="5" class="primitive"/>
  </g>
  <g transform="translate(86.94,18.42)">
    <circle cx="0" cy="0" r="5" class="primitive"/>
  </g>
  <g transform="translate(129.64,91.67)">
    <circle cx="0" cy="0" r="5" class="primitive"/>
  </g>
  <g transform="translate(64.86,39.71)">
    <circle cx="0" cy="0" r="5" class="primitive"/>
  </g>
  <g transform="translate(50,11.04)">
    <circle cx="0" cy="0" r="5" class="primitive"/>
  </g>
  <g transform="translate(20.69,35)">
    <circle cx="0" cy="0" r="5" class="primitive"/>
  </g>
  <g transform="translate(11.79,8.33)">
    <circle cx="0" cy="0" r="5" class="primitive"/>
  </g>
</g>
<g font-size="4" stroke="#000000" stroke-opacity="0.000" fill="#000000" id="img-244ebdf9-5">
  <g transform="translate(119.78,34.68)">
    <g class="primitive">
      <text text-anchor="middle" dy="0.35em">a</text>
    </g>
  </g>
  <g transform="translate(105.8,62.54)">
    <g class="primitive">
      <text text-anchor="middle" dy="0.35em">b</text>
    </g>
  </g>
  <g transform="translate(86.94,18.42)">
    <g class="primitive">
      <text text-anchor="middle" dy="0.35em">c</text>
    </g>
  </g>
  <g transform="translate(129.64,91.67)">
    <g class="primitive">
      <text text-anchor="middle" dy="0.35em">d</text>
    </g>
  </g>
  <g transform="translate(64.86,39.71)">
    <g class="primitive">
      <text text-anchor="middle" dy="0.35em">e</text>
    </g>
  </g>
  <g transform="translate(50,11.04)">
    <g class="primitive">
      <text text-anchor="middle" dy="0.35em">f</text>
    </g>
  </g>
  <g transform="translate(20.69,35)">
    <g class="primitive">
      <text text-anchor="middle" dy="0.35em">g</text>
    </g>
  </g>
  <g transform="translate(11.79,8.33)">
    <g class="primitive">
      <text text-anchor="middle" dy="0.35em">h</text>
    </g>
  </g>
</g>
</svg>
