<?xml version="1.0" encoding="UTF-8"?>
<svg xmlns="http://www.w3.org/2000/svg"
     xmlns:xlink="http://www.w3.org/1999/xlink"
     version="1.2"
     width="141.42mm" height="100mm" viewBox="0 0 141.42 100"
     stroke="none"
     fill="#000000"
     stroke-width="0.3"
     font-size="3.88"
>
<defs>
  <marker id="arrow" markerWidth="15" markerHeight="7" refX="5" refY="3.5" orient="auto" markerUnits="strokeWidth">
    <path d="M0,0 L15,3.5 L0,7 z" stroke="context-stroke" fill="context-stroke"/>
  </marker>
</defs>
<g stroke-width="0.95" fill="#000000" fill-opacity="0.000" stroke="#D3D3D3" id="img-115318ee-1">
  <g transform="translate(96.27,70.96)">
    <path fill="none" d="M-0.94,-17.42 L0.94,17.42 " class="primitive"/>
  </g>
  <g transform="translate(112.4,54.57)">
    <path fill="none" d="M-12.85,-3.22 L12.85,3.22 " class="primitive"/>
  </g>
  <g transform="translate(84.36,44.84)">
    <path fill="none" d="M7,3.51 L-7,-3.51 " class="primitive"/>
  </g>
  <g transform="translate(83.48,59.67)">
    <path fill="none" d="M8.61,-6.94 L-8.61,6.94 " class="primitive"/>
  </g>
  <g transform="translate(105.98,39.26)">
    <path fill="none" d="M-8.16,8.29 L8.16,-8.29 " class="primitive"/>
  </g>
  <g transform="translate(66.52,46.14)">
    <path fill="none" d="M24.08,3.46 L-24.08,-3.46 " class="primitive"/>
  </g>
  <g transform="translate(87.59,29.29)">
    <path fill="none" d="M6.42,17.77 L-6.42,-17.77 " class="primitive"/>
  </g>
  <g transform="translate(85.47,65.55)">
    <path fill="none" d="M10.49,22.99 L-10.49,-22.99 " class="primitive"/>
  </g>
  <g transform="translate(84.59,80.38)">
    <path fill="none" d="M9.88,8.72 L-9.88,-8.72 " class="primitive"/>
  </g>
  <g transform="translate(101.59,49.16)">
    <path fill="none" d="M23.86,8.28 L-23.86,-8.28 " class="primitive"/>
  </g>
  <g transform="translate(100.72,63.99)">
    <path fill="none" d="M24.4,-4.3 L-24.4,4.3 " class="primitive"/>
  </g>
  <g transform="translate(123.22,43.58)">
    <path fill="none" d="M5.09,12.15 L-5.09,-12.15 " class="primitive"/>
  </g>
  <g transform="translate(72.67,54.26)">
    <path fill="none" d="M0.68,-11.54 L-0.68,11.54 " class="primitive"/>
  </g>
  <g transform="translate(95.18,33.85)">
    <path fill="none" d="M-17.25,4.45 L17.25,-4.45 " class="primitive"/>
  </g>
  <g transform="translate(55.71,40.72)">
    <path fill="none" d="M13.2,-0.96 L-13.2,0.96 " class="primitive"/>
  </g>
  <g transform="translate(76.78,23.88)">
    <path fill="none" d="M-2.55,12.29 L2.55,-12.29 " class="primitive"/>
  </g>
  <g transform="translate(43.42,24.54)">
    <path fill="none" d="M26.31,13 L-26.31,-13 " class="primitive"/>
  </g>
  <g transform="translate(94.3,48.68)">
    <path fill="none" d="M-19.64,17.81 L19.64,-17.81 " class="primitive"/>
  </g>
  <g transform="translate(54.84,55.56)">
    <path fill="none" d="M13.87,11.07 L-13.87,-11.07 " class="primitive"/>
  </g>
  <g transform="translate(41.79,76.25)">
    <path fill="none" d="M25.59,-6.11 L-25.59,6.11 " class="primitive"/>
  </g>
  <g transform="translate(98.41,18.3)">
    <path fill="none" d="M14.7,7.97 L-14.7,-7.97 " class="primitive"/>
  </g>
  <g transform="translate(58.94,25.18)">
    <path fill="none" d="M-17.98,14.38 L17.98,-14.38 " class="primitive"/>
  </g>
  <g transform="translate(25.58,25.84)">
    <path fill="none" d="M10.09,13.28 L-10.09,-13.28 " class="primitive"/>
  </g>
  <g transform="translate(24.83,62.72)">
    <path fill="none" d="M11.15,-17.68 L-11.15,17.68 " class="primitive"/>
  </g>
</g>
<g stroke-width="0.95" stroke="#D3D3D3" id="img-115318ee-2">
</g>
<g font-size="4" stroke="#000000" stroke-opacity="0.000" fill="#000000" id="img-115318ee-3">
</g>
<g stroke-width="0" stroke="#000000" stroke-opacity="0.000" fill="#40E0D0" id="img-115318ee-4">
  <g transform="translate(95.16,50.25)">
    <circle cx="0" cy="0" r="4.47" class="primitive"/>
  </g>
  <g transform="translate(97.39,91.67)">
    <circle cx="0" cy="0" r="4.47" class="primitive"/>
  </g>
  <g transform="translate(129.64,58.89)">
    <circle cx="0" cy="0" r="4.47" class="primitive"/>
  </g>
  <g transform="translate(73.55,39.43)">
    <circle cx="0" cy="0" r="4.47" class="primitive"/>
  </g>
  <g transform="translate(71.8,69.09)">
    <circle cx="0" cy="0" r="4.47" class="primitive"/>
  </g>
  <g transform="translate(116.81,28.28)">
    <circle cx="0" cy="0" r="4.47" class="primitive"/>
  </g>
  <g transform="translate(37.88,42.02)">
    <circle cx="0" cy="0" r="4.47" class="primitive"/>
  </g>
  <g transform="translate(80.01,8.33)">
    <circle cx="0" cy="0" r="4.47" class="primitive"/>
  </g>
  <g transform="translate(13.29,9.65)">
    <circle cx="0" cy="0" r="4.47" class="primitive"/>
  </g>
  <g transform="translate(11.79,83.41)">
    <circle cx="0" cy="0" r="4.47" class="primitive"/>
  </g>
</g>
<g font-size="4" stroke="#000000" stroke-opacity="0.000" fill="#000000" id="img-115318ee-5">
  <g transform="translate(95.16,50.25)">
    <g class="primitive">
      <text text-anchor="middle" dy="0.35em">a</text>
    </g>
  </g>
  <g transform="translate(97.39,91.67)">
    <g class="primitive">
      <text text-anchor="middle" dy="0.35em">b</text>
    </g>
  </g>
  <g transform="translate(129.64,58.89)">
    <g class="primitive">
      <text text-anchor="middle" dy="0.35em">c</text>
    </g>
  </g>
  <g transform="translate(73.55,39.43)">
    <g class="primitive">
      <text text-anchor="middle" dy="0.35em">d</text>
    </g>
  </g>
  <g transform="translate(71.8,69.09)">
    <g class="primitive">
      <text text-anchor="middle" dy="0.35em">e</text>
    </g>
  </g>
  <g transform="translate(116.81,28.28)">
    <g class="primitive">
      <text text-anchor="middle" dy="0.35em">f</text>
    </g>
  </g>
  <g transform="translate(37.88,42.02)">
    <g class="primitive">
      <text text-anchor="middle" dy="0.35em">g</text>
    </g>
  </g>
  <g transform="translate(80.01,8.33)">
    <g class="primitive">
      <text text-anchor="middle" dy="0.35em">h</text>
    </g>
  </g>
  <g transform="translate(13.29,9.65)">
    <g class="primitive">
      <text text-anchor="middle" dy="0.35em">i</text>
    </g>
  </g>
  <g transform="translate(11.79,83.41)">
    <g class="primitive">
      <text text-anchor="middle" dy="0.35em">j</text>
    </g>
  </g>
</g>
</svg>
