<?xml version="1.0" encoding="UTF-8"?>
<svg xmlns="http://www.w3.org/2000/svg"
     xmlns:xlink="http://www.w3.org/1999/xlink"
     version="1.2"
     width="141.42mm" height="100mm" viewBox="0 0 141.42 100"
     stroke="none"
     fill="#000000"
     stroke-width="0.3"
     font-size="3.88"
>
<defs>
  <marker id="arrow" markerWidth="15" markerHeight="7" refX="5" refY="3.5" orient="auto" markerUnits="strokeWidth">
    <path d="M0,0 L15,3.5 L0,7 z" stroke="context-stroke" fill="context-stroke"/>
  </marker>
</defs>
<g stroke-width="1.06" fill="#000000" fill-opacity="0.000" stroke="#D3D3D3" id="img-c15285e7-1">
  <g transform="translate(25.57,50.54)">
    <path fill="none" d="M-6.46,-9.32 L6.46,9.32 " class="primitive"/>
  </g>
  <g transform="translate(33.32,29.28)">
    <path fill="none" d="M-12.32,6.44 L12.32,-6.44 " class="primitive"/>
  </g>
  <g transform="translate(23.05,77.42)">
    <path fill="none" d="M8.73,-11.04 L-8.73,11.04 " class="primitive"/>
  </g>
  <g transform="translate(55.04,51.14)">
    <path fill="none" d="M-16.69,9.69 L16.69,-9.69 " class="primitive"/>
  </g>
  <g transform="translate(62.79,29.88)">
    <path fill="none" d="M-9.29,-6.62 L9.29,6.62 " class="primitive"/>
  </g>
  <g transform="translate(69.52,16.15)">
    <path fill="none" d="M-14.73,3.37 L14.73,-3.37 " class="primitive"/>
  </g>
  <g transform="translate(98.82,36.45)">
    <path fill="none" d="M-17.93,2.07 L17.93,-2.07 " class="primitive"/>
  </g>
  <g transform="translate(82.48,25.38)">
    <path fill="none" d="M5.02,-10.25 L-5.02,10.25 " class="primitive"/>
  </g>
  <g transform="translate(109.42,9.99)">
    <path fill="none" d="M-15.04,1.23 L15.04,-1.23 " class="primitive"/>
  </g>
  <g transform="translate(125.76,21.06)">
    <path fill="none" d="M-2.78,9.12 L2.78,-9.12 " class="primitive"/>
  </g>
</g>
<g stroke-width="1.06" stroke="#D3D3D3" id="img-c15285e7-2">
  <g transform="translate(30.41,57.52)">
    <path fill="none" d="M1,-1.8 L1.62,2.34 -2.62,-0.54 " class="primitive"/>
  </g>
  <g transform="translate(42.67,24.39)">
    <path fill="none" d="M-2.68,-0.37 L2.97,-1.55 -0.29,1.92 " class="primitive"/>
  </g>
  <g transform="translate(16.13,86.17)">
    <path fill="none" d="M2.66,-0.44 L-1.8,2.28 -0.86,-1.83 " class="primitive"/>
  </g>
  <g transform="translate(68.88,43.11)">
    <path fill="none" d="M-2.71,-0.27 L2.85,-1.66 -0.15,1.93 " class="primitive"/>
  </g>
  <g transform="translate(69.49,34.65)">
    <path fill="none" d="M0.13,-1.93 L2.6,1.85 -2.73,0.08 " class="primitive"/>
  </g>
  <g transform="translate(80.73,13.58)">
    <path fill="none" d="M-2.38,-0.95 L3.51,-0.8 -1.14,1.76 " class="primitive"/>
  </g>
  <g transform="translate(113.11,34.8)">
    <path fill="none" d="M-2.15,-1.2 L3.64,-0.42 -1.5,1.62 " class="primitive"/>
  </g>
  <g transform="translate(78.67,33.17)">
    <path fill="none" d="M2.51,-0.77 L-1.21,2.47 -1.3,-1.7 " class="primitive"/>
  </g>
  <g transform="translate(120.8,9.06)">
    <path fill="none" d="M-2.07,-1.27 L3.67,-0.3 -1.6,1.57 " class="primitive"/>
  </g>
  <g transform="translate(127.76,14.49)">
    <path fill="none" d="M-2.36,0.98 L0.78,-2.55 1.58,1.58 " class="primitive"/>
  </g>
</g>
<g font-size="4" stroke="#000000" stroke-opacity="0.000" fill="#000000" id="img-c15285e7-3">
</g>
<g stroke-width="0" stroke="#000000" stroke-opacity="0.000" fill="#40E0D0" id="img-c15285e7-4">
  <g transform="translate(16.82,37.91)">
    <circle cx="0" cy="0" r="5" class="primitive"/>
  </g>
  <g transform="translate(34.32,63.17)">
    <circle cx="0" cy="0" r="5" class="primitive"/>
  </g>
  <g transform="translate(49.83,20.65)">
    <circle cx="0" cy="0" r="5" class="primitive"/>
  </g>
  <g transform="translate(11.79,91.67)">
    <circle cx="0" cy="0" r="5" class="primitive"/>
  </g>
  <g transform="translate(75.76,39.11)">
    <circle cx="0" cy="0" r="5" class="primitive"/>
  </g>
  <g transform="translate(89.2,11.64)">
    <circle cx="0" cy="0" r="5" class="primitive"/>
  </g>
  <g transform="translate(121.89,33.78)">
    <circle cx="0" cy="0" r="5" class="primitive"/>
  </g>
  <g transform="translate(129.64,8.33)">
    <circle cx="0" cy="0" r="5" class="primitive"/>
  </g>
</g>
<g font-size="4" stroke="#000000" stroke-opacity="0.000" fill="#000000" id="img-c15285e7-5">
  <g transform="translate(16.82,37.91)">
    <g class="primitive">
      <text text-anchor="middle" dy="0.35em">a</text>
    </g>
  </g>
  <g transform="translate(34.32,63.17)">
    <g class="primitive">
      <text text-anchor="middle" dy="0.35em">b</text>
    </g>
  </g>
  <g transform="translate(49.83,20.65)">
    <g class="primitive">
      <text text-anchor="middle" dy="0.35em">c</text>
    </g>
  </g>
  <g transform="translate(11.79,91.67)">
    <g class="primitive">
      <text text-anchor="middle" dy="0.35em">d</text>
    </g>
  </g>
  <g transform="translate(75.76,39.11)">
    <g class="primitive">
      <text text-anchor="middle" dy="0.35em">e</text>
    </g>
  </g>
  <g transform="translate(89.2,11.64)">
    <g class="primitive">
      <text text-anchor="middle" dy="0.35em">f</text>
    </g>
  </g>
  <g transform="translate(121.89,33.78)">
    <g class="primitive">
      <text text-anchor="middle" dy="0.35em">g</text>
    </g>
  </g>
  <g transform="translate(129.64,8.33)">
    <g class="primitive">
      <text text-anchor="middle" dy="0.35em">h</text>
    </g>
  </g>
</g>
</svg>
