<?xml version="1.0" encoding="UTF-8" standalone="no"?>
<svg
   width="338.88776"
   height="207.26051"
   version="1.1"
   viewBox="0 0 338.88777 207.26051"
   id="svg851"
   sodipodi:docname="logo-dark.svg"
   inkscape:version="1.1.2 (b8e25be8, 2022-02-05)"
   xmlns:inkscape="http://www.inkscape.org/namespaces/inkscape"
   xmlns:sodipodi="http://sodipodi.sourceforge.net/DTD/sodipodi-0.dtd"
   xmlns="http://www.w3.org/2000/svg"
   xmlns:svg="http://www.w3.org/2000/svg"
   xmlns:rdf="http://www.w3.org/1999/02/22-rdf-syntax-ns#"
   xmlns:cc="http://creativecommons.org/ns#"
   xmlns:dc="http://purl.org/dc/elements/1.1/">
  <defs
     id="defs855" />
  <sodipodi:namedview
     inkscape:document-rotation="0"
     pagecolor="#ffffff"
     bordercolor="#666666"
     borderopacity="1"
     objecttolerance="10"
     gridtolerance="10"
     guidetolerance="10"
     inkscape:pageopacity="0"
     inkscape:pageshadow="2"
     inkscape:window-width="2560"
     inkscape:window-height="1387"
     id="namedview853"
     showgrid="false"
     inkscape:zoom="2.9659185"
     inkscape:cx="108.06096"
     inkscape:cy="24.444367"
     inkscape:window-x="0"
     inkscape:window-y="25"
     inkscape:window-maximized="0"
     inkscape:current-layer="g843"
     inkscape:pagecheckerboard="0" />
  <metadata
     id="metadata833">
    <rdf:RDF>
      <cc:Work
         rdf:about="">
        <dc:format>image/svg+xml</dc:format>
        <dc:type
           rdf:resource="http://purl.org/dc/dcmitype/StillImage" />
        <dc:title />
      </cc:Work>
    </rdf:RDF>
  </metadata>
  <g
     transform="matrix(0.40495514,0,0,0.40495514,-35.707135,-0.05277991)"
     id="g843">
    <path
       style="stroke-width:0.99865247;stroke-miterlimit:4;stroke-dasharray:none;fill:#f2f2f2;fill-opacity:1"
       d="m 218.06,511.02 c -4.3024,-1.7384 -6.3881,-5.8306 -6.3881,-12.534 0,-3.4341 2.0248,-40.799 4.4994,-83.032 2.4747,-42.234 4.3776,-76.91 4.2288,-77.059 -0.14888,-0.14887 -1.81,2.6982 -3.6913,6.3268 -4.3883,8.4638 -9.4329,13.729 -14.643,15.284 -3.5291,1.053 -4.6244,0.97919 -7.794,-0.52492 -2.0284,-0.96252 -4.4052,-3.137 -5.2818,-4.8322 -5.8363,-11.286 1.1343,-62.454 21.272,-156.15 6.311,-29.362 8.3434,-36.5 10.393,-36.5 2.5185,0 0.669,-2.7411 -2.4112,-3.5736 -7.5204,-2.0327 -78.093,-69.473 -96.718,-92.426 -10.825,-13.34 -24.908,-32.603 -28.766,-39.346 -6.1902,-10.819 -6.1037,-20.844 0.21293,-24.695 4.4212,-2.6957 8.1528,-2.4516 15.475,1.0125 16.872,7.982 57.417,40.788 116.72,94.44 23.723,21.463 25.451,23.212 25.485,25.78 0.0381,2.8938 2.023,3.1002 4.4657,0.46455 1.7822,-1.923 8.2738,-4.4416 27.199,-10.552 59.888,-19.338 89.173,-26.369 127.75,-30.673 26.606,-2.9687 38.234,-0.9599 42.145,7.2809 3.4015,7.1682 -1.4218,13.89 -15.051,20.974 -17.819,9.262 -60.369,25.591 -104.48,40.097 -50.966,16.759 -59.864,19.407 -62.936,18.733 -3.3886,-0.74425 -4.6105,0.63737 -2.9357,3.3192 0.9727,1.5575 0.41626,5.6044 -2.9841,21.703 l -4.1797,19.788 6.1132,5.1757 7.9601,136 c 4.3781,74.8 7.9607,138.79 7.9614,142.2 0.003,13.849 -1.1485,14.315 -35.15,14.234 -14.492,-0.0349 -27.299,-0.44737 -28.461,-0.91668 z m 50.612,-14.77 c -2e-4,-1.5125 -2.9252,-52.619 -6.5,-113.57 -3.5748,-60.951 -6.5301,-112.03 -6.5673,-113.5 -0.0603,-2.387 -0.15992,-2.4614 -0.9117,-0.67992 -0.46421,1.1 -3.1404,9.2846 -5.947,18.188 -2.8066,8.9034 -7.1504,21.278 -9.6528,27.5 l -4.5499,11.312 -4.9223,83.5 c -2.7073,45.925 -4.9282,84.962 -4.9355,86.75 l -0.0132,3.25 h 44 z M 206.661,336 c 11.209,-22.285 23.778,-57.349 31.367,-87.503 4.8517,-19.277 13.645,-58.455 13.645,-60.794 0,-1.0304 -1.8987,-1.5756 -6.9682,-2.0006 -3.8325,-0.3213 -9.0875,-1.5216 -11.678,-2.6674 -2.5902,-1.1458 -5.0047,-1.7356 -5.3656,-1.3108 -0.36089,0.42479 -1.6636,5.4974 -2.8948,11.272 -5.8702,27.533 -14.215,68.948 -16.522,82 -3.6908,20.88 -8.5775,58.322 -8.5386,65.423 l 0.0333,6.0773 2.077,-2.497 c 1.1424,-1.3733 3.3225,-4.9733 4.8448,-8 z m 45.973,-172.48 c 4.6283,-2.3934 7.0386,-6.2303 7.0386,-11.204 0,-7.6893 -3.8517,-12.447 -11.192,-13.824 -14.494,-2.7191 -20.949,19.185 -7.3927,25.087 4.0778,1.7755 8.0383,1.7554 11.546,-0.0586 z m 57.799,-19.12 c 58.982,-18.969 117.15,-41.361 126.74,-48.788 1.8599,-1.4406 1.4888,-1.5513 -5.2978,-1.5809 -8.6445,-0.03767 -29.972,2.2832 -46.596,5.0704 -17.649,2.9592 -34.911,7.0315 -56.669,13.369 -17.092,4.9782 -53.89,16.469 -54.753,17.097 -0.17358,0.1264 1.1065,2.7497 2.8447,5.8296 2.188,3.877 3.3277,7.4461 3.7045,11.601 0.3766,4.1533 0.9665,6.0013 1.9156,6.0013 0.75428,0 13.404,-3.8699 28.111,-8.5998 z m -93.365,-9.8114 c 1.4218,-2.4262 5.0848,-6.6392 8.1401,-9.3622 l 5.5549,-4.951 -15.795,-14.417 c -54.197,-49.47 -111.58,-95.511 -113.15,-90.79 -0.47829,1.4349 12.225,20.199 23.15,34.195 13.063,16.735 27.815,32.711 47.83,51.8 17.563,16.75 40.659,37.937 41.356,37.937 0.18121,0 1.4928,-1.985 2.9146,-4.4112 z"
       id="path835"
       inkscape:connector-curvature="0" />
    <path
       transform="translate(88.179,0.13037)"
       d="M 118.74,132.56 C 90.369,107.013 65.826,82.972 51.568,66.759 38.435,51.826 24.159,32.926 16.397,20.194 c -2.7391,-4.4925 -3.144,-5.8712 -1.5824,-5.3875 7.4562,2.3094 38.304,26.34 77.98,60.746 12.049,10.448 17.711,15.495 35.5,31.638 l 14.262,12.942 -2.6011,2.2573 c -4.5873,3.981 -8.6596,8.4771 -11.26,12.432 -1.3932,2.1187 -2.6752,3.8521 -2.8488,3.8521 -0.17367,0 -3.3712,-2.7512 -7.1056,-6.1139 z"
       fill="#318d22"
       stroke="#318d22"
       stroke-width="0.41645"
       id="path837"
       inkscape:connector-curvature="0" />
    <path
       transform="translate(88.179,0.13037)"
       d="m 193.2,151.79 c -0.23526,-0.5745 -0.66238,-2.7927 -0.94915,-4.9294 -0.65559,-4.8845 -1.4669,-7.2664 -4.379,-12.857 l -2.3222,-4.458 0.95361,-0.38912 c 3.3845,-1.381 41.737,-13.237 56.974,-17.613 28.615,-8.2175 51.678,-12.921 77.939,-15.894 12.807,-1.45 27.759,-2.1561 28.267,-1.3349 0.51345,0.83079 -5.3144,4.2368 -13.965,8.1615 -28.006,12.706 -85.024,33.224 -133.32,47.973 -4.2964,1.3122 -8.028,2.3858 -8.2924,2.3858 -0.2644,0 -0.67322,-0.47005 -0.90847,-1.0445 z"
       fill="#8a4ea9"
       stroke="#8a4ea9"
       stroke-width="0.3214"
       id="path839"
       inkscape:connector-curvature="0" />
    <path
       transform="translate(88.179,0.13037)"
       d="m 111.82,339.56 c 0.25779,-10.518 4.2064,-41.304 8.2648,-64.44 2.8045,-15.987 16.666,-83.838 18.443,-90.279 0.4339,-1.5724 0.93352,-3.0036 1.1103,-3.1803 0.36203,-0.36203 2.4942,0.13791 4.8561,1.1386 2.6426,1.1196 7.1748,2.1706 12.061,2.7967 5.1507,0.66003 6.4884,1.0086 6.7792,1.7663 0.44703,1.1649 -8.3656,40.607 -14.007,62.689 -9.6338,37.711 -27.956,85.051 -36.821,95.134 l -0.84769,0.96419 z"
       fill="#c1352d"
       stroke="#c1352d"
       stroke-width="0.3214"
       id="path841"
       inkscape:connector-curvature="0" />
  </g>
  <text
     x="92.305397"
     y="157.89423"
     fill="#000000"
     font-family="sans-serif"
     font-size="85.333px"
     style="line-height:1.25;fill:#f2f2f2;fill-opacity:1"
     xml:space="preserve"
     id="text847"><tspan
       style="fill:#f2f2f2;fill-opacity:1"
       x="92.305397"
       y="157.89423"
       font-family="Palatino"
       font-weight="bold"
       id="tspan845">Mill.jl</tspan></text>
  <text
     fill="#000000"
     font-family="sans-serif"
     font-size="40px"
     style="line-height:1.25;white-space:pre;shape-inside:url(#rect1546)"
     xml:space="preserve"
     id="text849"
     x="-119.65751"
     y="-293.21362" />
</svg>
